<svg xmlns="http://www.w3.org/2000/svg" viewBox="0 0 64 64" role="img" aria-label="RideShare">
  <defs>
    <linearGradient id="rideshare-bg" x1="0%" y1="0%" x2="100%" y2="100%">
      <stop offset="0%" stop-color="#2563eb"/>
      <stop offset="100%" stop-color="#B265FF"/>
    </linearGradient>
  </defs>
  <rect width="64" height="64" rx="14" fill="url(#rideshare-bg)"/>
  <!-- route -->
  <path fill="none" stroke="#fff" stroke-width="2" stroke-linecap="round" stroke-dasharray="3 3" opacity=".7" d="M14 22h12M38 22h12"/>
  <!-- map pins -->
  <path fill="#fff" d="M14 22a4 4 0 1 1 0 .01zm36 0a4 4 0 1 1 0 .01z"/>
  <path fill="#fff" opacity=".85" d="M14 26v2h0M50 26v2h0"/>
  <!-- car -->
  <path fill="#fff" d="M18 34h28l3 5v5H15v-5l3-5zm4 2h6l2-3h12l2 3h6l-1 3H23l-1-3z"/>
  <rect x="22" y="36" width="8" height="5" rx="1" fill="#2563eb" opacity=".35"/>
  <rect x="34" y="36" width="8" height="5" rx="1" fill="#2563eb" opacity=".35"/>
  <circle cx="22" cy="46" r="3.5" fill="#fff"/>
  <circle cx="42" cy="46" r="3.5" fill="#fff"/>
  <!-- carpool riders -->
  <circle cx="28" cy="31" r="2.2" fill="#fff"/>
  <circle cx="36" cy="31" r="2.2" fill="#fff"/>
  <path fill="none" stroke="#fff" stroke-width="1.5" stroke-linecap="round" opacity=".9" d="M30 22h4"/>
</svg>
