<svg xmlns="http://www.w3.org/2000/svg" viewBox="0 0 64 64" role="img" aria-label="Weartual">
  <defs>
    <linearGradient id="weartual-bg" x1="0%" y1="0%" x2="100%" y2="100%">
      <stop offset="0%" stop-color="#B265FF"/>
      <stop offset="55%" stop-color="#FF4400"/>
      <stop offset="100%" stop-color="#FFA100"/>
    </linearGradient>
  </defs>
  <rect width="64" height="64" rx="14" fill="url(#weartual-bg)"/>
  <!-- hanger -->
  <path fill="none" stroke="#fff" stroke-width="2.2" stroke-linecap="round" d="M32 14v5M28 19h8"/>
  <path fill="none" stroke="#fff" stroke-width="2.2" stroke-linecap="round" d="M24 19c0 4.4 3.6 8 8 8s8-3.6 8-8"/>
  <!-- t-shirt -->
  <path fill="#fff" d="M20 27l4-3 4 2 4-2 4 3v3l-2 1v17H22V31l-2-1v-1z"/>
  <!-- virtual try-on sparkle -->
  <path fill="#fff" opacity=".95" d="M46 22l1.2 2.8L50 26l-2.8 1.2L46 30l-1.2-2.8L42 26l2.8-1.2L46 22z"/>
  <circle cx="17" cy="24" r="1.8" fill="#fff" opacity=".8"/>
</svg>
